# xmcd
#
# Track frame offsets:
#	150
#	20279
#	37747
#	54420
#	74602
#	98007
#	119388
#	143701
#	200472
#	215732
#	237495
#	266959
#	284896
#
# Disc length: 4080 seconds
#
# Revision: 0
# Processed by: cddbd v1.5.1PL0 Copyright (c) Steve Scherf et al.
# Submitted via: dBpowerAMP V4.0
#
DISCID=cb0fee0d
DTITLE=gillian welch - live Lyons, CO 8-19-01
DYEAR=1900
DGENRE=
TTITLE0=tear my stillhouse down
TTITLE1=dear someone
TTITLE2=i wanna sing that rock and roll
TTITLE3=rock of ages
TTITLE4=nobody but the baby
TTITLE5=orphan girl
TTITLE6=elvis presley blues
TTITLE7=my first lover/time the revelator
TTITLE8=by the mark
TTITLE9=big rock candy mountain
TTITLE10=april 14th
TTITLE11=caleb meyer
TTITLE12=red clay halo (encore)
EXTD=
EXTT0=
EXTT1=
EXTT2=
EXTT3=
EXTT4=
EXTT5=
EXTT6=
EXTT7=
EXTT8=
EXTT9=
EXTT10=
EXTT11=
EXTT12=
PLAYORDER=
